<!-- Copyright 2018-present Revolut LTD. Apache-2.0. Source: @revolut/icons@2.8.0/calendar. -->
<svg xmlns="http://www.w3.org/2000/svg" viewBox="0 0 24 24"><symbol id="glyph" viewBox="0 0 24 24"><g fill="currentColor"><path fill="currentColor" fill-rule="evenodd" d="M5.471 2.431a1 1 0 0 1 1-1h.191a1 1 0 0 1 1 1v.64h8.676v-.64a1 1 0 0 1 1-1h.191a1 1 0 0 1 1 1v.657c.707.03 1.183.106 1.582.31a3 3 0 0 1 1.311 1.31c.327.643.327 1.483.327 3.163v9.898c0 1.68 0 2.52-.327 3.162a3 3 0 0 1-1.31 1.311c-.643.327-1.483.327-3.163.327H7.051c-1.68 0-2.52 0-3.162-.327a3 3 0 0 1-1.311-1.31c-.327-.643-.327-1.483-.327-3.163V7.871c0-1.68 0-2.52.327-3.162a3 3 0 0 1 1.31-1.311c.4-.204.876-.28 1.583-.31v-.657Zm-1.15 6.946a1.5 1.5 0 0 1 .656-.656c.321-.163.741-.163 1.581-.163h10.884c.84 0 1.26 0 1.58.163a1.5 1.5 0 0 1 .656.656c.164.32.164.74.164 1.58v7.305c0 .84 0 1.26-.164 1.58a1.5 1.5 0 0 1-.655.656c-.321.164-.741.164-1.581.164H6.558c-.84 0-1.26 0-1.58-.164a1.5 1.5 0 0 1-.656-.655c-.164-.321-.164-.741-.164-1.581v-7.304c0-.84 0-1.26.164-1.581Z" clip-rule="evenodd"></path></g></symbol><use href="#glyph"/></svg>
