<!-- Copyright 2018-present Revolut LTD. Apache-2.0. Source: @revolut/icons@2.8.0/flag. -->
<svg xmlns="http://www.w3.org/2000/svg" viewBox="0 0 24 24"><symbol id="glyph" viewBox="0 0 24 24"><g fill="currentColor"><path fill="currentColor" d="M3.262 5.536c-.599.6-.724 1.352-.538 2.046l3.596 13.42a.85.85 0 0 0 1.642-.44l-1.11-4.143c1.438-.746 4.413-1.631 6.78-1.185 2.47.466 4.749 0 5.989-1.217.541-.532.86-1.356.661-2.1l-2.174-8.113c-.19-.711-1.086-1.012-1.728-.652-1.363.764-3.665 1.674-6.342 1.17-2.79-.526-4.766-.002-6.497 1.005-.101.058-.197.126-.28.209Z"></path></g></symbol><use href="#glyph"/></svg>
