<!-- Copyright 2018-present Revolut LTD. Apache-2.0. Source: @revolut/icons@2.8.0/shield. -->
<svg xmlns="http://www.w3.org/2000/svg" viewBox="0 0 24 24"><symbol id="glyph" viewBox="0 0 24 24"><g fill="currentColor"><path fill="currentColor" d="M3.532 6.133c0-.447.254-1.43 1.27-1.788C5.82 3.988 9.46 2.41 11.154 1.664c.678-.297 1.412-.124 1.694 0 1.693.745 5.334 2.324 6.35 2.681 1.017.358 1.27 1.341 1.27 1.788v4.47c0 1.042-.084 3.396-.423 4.468-.402 1.275-2.335 4.973-7.254 7.255a1.88 1.88 0 0 1-1.58 0c-4.919-2.282-6.852-5.98-7.254-7.255-.339-1.072-.424-3.426-.424-4.469v-4.47Zm15.169 1.011c0-.354-.201-.9-1.005-1.183l-4.243-1.705A1.058 1.058 0 0 0 12 5.24v5.173c0 .585.474 1.058 1.058 1.058h4.604a1.03 1.03 0 0 0 1.036-1.03l.001-.663c.001-.531.002-.776.002.106V7.144ZM5.56 13.949c.023.104.047.2.073.286.314 1.028 1.806 3.984 5.58 5.855.403.2.786-.18.786-.63v-5.602c0-.584-.474-1.058-1.059-1.058h-4.38c-.624 0-1.132.54-1 1.149Z"></path></g></symbol><use href="#glyph"/></svg>
