<!-- Copyright 2018-present Revolut LTD. Apache-2.0. Source: @revolut/icons@2.8.0/snowflake. -->
<svg xmlns="http://www.w3.org/2000/svg" viewBox="0 0 24 24"><symbol id="glyph" viewBox="0 0 24 24"><g fill="currentColor"><path fill="currentColor" d="M12.255 2.19c.433 0 .785.352.785.785v.839l1.142-1.142a.785.785 0 0 1 1.11 0l.359.36a.785.785 0 0 1 0 1.11l-2.611 2.61v1.511a3.874 3.874 0 0 1 1.677.97l1.307-.754.957-3.568a.785.785 0 0 1 .961-.555l.491.131a.785.785 0 0 1 .555.961L18.57 7.01l.727-.42a.785.785 0 0 1 1.072.287l.255.44a.785.785 0 0 1-.288 1.073l-.726.42 1.558.417a.785.785 0 0 1 .555.96l-.131.492a.785.785 0 0 1-.962.555l-3.565-.956-1.31.757a3.884 3.884 0 0 1-.001 1.936l1.308.755 3.568-.956a.785.785 0 0 1 .961.555l.132.491a.785.785 0 0 1-.555.961l-1.561.419.727.42a.785.785 0 0 1 .287 1.072l-.254.44a.785.785 0 0 1-1.072.287l-.725-.418.418 1.558a.785.785 0 0 1-.555.96l-.491.133a.785.785 0 0 1-.961-.555l-.799-2.98-.157-.586-1.313-.757a3.873 3.873 0 0 1-1.671.966v1.513l2.61 2.61a.785.785 0 0 1 0 1.11l-.36.36a.785.785 0 0 1-1.11 0l-1.14-1.141v.837a.785.785 0 0 1-.785.785h-.508a.785.785 0 0 1-.785-.785v-.84l-1.144 1.144a.785.785 0 0 1-1.11 0l-.36-.36a.785.785 0 0 1 0-1.11l2.614-2.613v-1.509a3.874 3.874 0 0 1-1.677-.967l-1.31.757-.957 3.566a.785.785 0 0 1-.961.555l-.491-.132a.785.785 0 0 1-.555-.961l.417-1.558-.724.418a.785.785 0 0 1-1.072-.287l-.254-.44a.785.785 0 0 1 .287-1.072l.727-.42-1.561-.419a.785.785 0 0 1-.555-.96l.132-.492a.785.785 0 0 1 .96-.555l3.57.956 1.306-.754a3.884 3.884 0 0 1-.002-1.939l-1.307-.755-3.566.956a.785.785 0 0 1-.961-.555l-.132-.491a.785.785 0 0 1 .555-.961l1.559-.418-.727-.42a.785.785 0 0 1-.287-1.071l.254-.44a.785.785 0 0 1 1.072-.288l.728.42-.419-1.56a.785.785 0 0 1 .555-.962l.491-.131a.785.785 0 0 1 .962.555l.798 2.979.158.589 1.306.754a3.873 3.873 0 0 1 1.68-.97V6.753L8.35 4.142a.785.785 0 0 1 0-1.11l.36-.36a.785.785 0 0 1 1.109 0l1.143 1.143v-.84c0-.433.351-.784.785-.784h.508ZM10.2 12a1.8 1.8 0 1 0 3.598-.001 1.8 1.8 0 0 0-3.598 0Z"></path></g></symbol><use href="#glyph"/></svg>
